Coordinates
version=1
nRows=10
nColumns=63
inDegrees=yes

Units are S.I. units (second, meters, Newtons, ...)
If the header above contains a line with 'inDegrees', this indicates whether rotational values are in degrees (yes) or radians (no).

endheader
time	pelvis_tilt	pelvis_list	pelvis_rotation	pelvis_tx	pelvis_ty	pelvis_tz	hip_flexion_r	hip_adduction_r	hip_rotation_r	knee_angle_r	knee_angle_r_beta	ankle_angle_r	subtalar_angle_r	mtp_angle_r	hip_flexion_l	hip_adduction_l	hip_rotation_l	knee_angle_l	knee_angle_l_beta	ankle_angle_l	subtalar_angle_l	mtp_angle_l	L5_S1_Flex_Ext	L5_S1_Lat_Bending	L5_S1_axial_rotation	L4_L5_Flex_Ext	L4_L5_Lat_Bending	L4_L5_axial_rotation	L3_L4_Flex_Ext	L3_L4_Lat_Bending	L3_L4_axial_rotation	L2_L3_Flex_Ext	L2_L3_Lat_Bending	L2_L3_axial_rotation	L1_L2_Flex_Ext	L1_L2_Lat_Bending	L1_L2_axial_rotation	L1_T12_Flex_Ext	L1_T12_Lat_Bending	L1_T12_axial_rotation	Abs_r3	Abs_r2	Abs_r1	Abs_t1	Abs_t2	neck_flexion	neck_bending	neck_rotation	arm_flex_r	arm_add_r	arm_rot_r	elbow_flex_r	pro_sup_r	wrist_flex_r	wrist_dev_r	arm_flex_l	arm_add_l	arm_rot_l	elbow_flex_l	pro_sup_l	wrist_flex_l	wrist_dev_l
      3.75000000	    -52.85966748	     -5.20634131	      0.78297127	     -0.37428370	      1.12690490	      0.03626454	     95.16522975	     -8.72315422	     -7.52466800	     91.53332391	      1.59755788	      5.41474782	     -2.10980556	      0.00000000	    107.72752875	     -4.37323602	      2.25154683	     71.42975547	      1.24668442	     15.30051417	      5.25795604	      0.00000000	     -0.07526346	      0.43434187	      0.34777885	     -0.13977177	      0.57767468	      0.36951502	     -0.12365034	      1.05605881	      0.36951502	     -0.08601861	      1.05605881	      0.30430649	     -0.06988965	      0.88570993	      0.28257031	     -0.04300554	      0.67279555	      0.26083414	     -0.53759938	      4.91336206	      1.93424161	      0.00000000	      0.00000000	     -0.00000000	      0.00000000	      0.00000000	     76.86398984	    -16.23209088	     23.65116273	     29.84457893	     37.50650765	      0.00000000	      5.00015910	     76.31941895	     -6.51294063	     20.13416952	     29.66316590	     54.72307558	      0.00000000	      5.00015910
      3.75800000	    -52.76247594	     -5.20500886	      0.72762021	     -0.37403558	      1.12653476	      0.03642444	     96.20362200	     -8.71212606	     -7.00480327	     93.81148956	      1.63731937	      5.65051109	     -2.09111155	      0.00000000	    106.22585970	     -4.60183143	      1.88311479	     69.14740613	      1.20684991	     14.71997430	      5.38660930	      0.00000000	     -0.07489237	      0.43846477	      0.37326153	     -0.13908262	      0.58315814	      0.39659038	     -0.12304068	      1.06608323	      0.39659038	     -0.08559449	      1.06608323	      0.32660384	     -0.06954506	      0.89411735	      0.30327499	     -0.04279350	      0.67918192	      0.27994615	     -0.53494872	      4.96000112	      2.07596866	      0.00000000	      0.00000000	     -0.00000000	      0.00000000	      0.00000000	     76.71970203	    -16.36646743	     23.65891797	     30.11200423	     37.51441787	      0.00000000	      5.00015530	     76.32707109	     -6.30904104	     19.79129410	     29.35303451	     54.65321760	      0.00000000	      5.00015530
      3.76700000	    -52.64961241	     -5.19954188	      0.64964535	     -0.37366684	      1.12606893	      0.03661024	     97.26819759	     -8.66916590	     -6.47768969	     96.04819853	      1.67635731	      5.94348468	     -1.94190497	      0.00000000	    104.72256660	     -4.86321831	      1.49182942	     66.98062138	      1.16903238	     14.13965242	      5.79311916	      0.00000000	     -0.07510554	      0.44226770	      0.40007809	     -0.13947850	      0.58821605	      0.42508297	     -0.12339089	      1.07532969	      0.42508297	     -0.08583812	      1.07532969	      0.35006833	     -0.06974300	      0.90187230	      0.32506345	     -0.04291531	      0.68507267	      0.30005857	     -0.53647136	      5.00302071	      2.22511433	      0.00000000	      0.00000000	     -0.00000000	      0.00000000	      0.00000000	     76.55837286	    -16.47883285	     23.66521383	     30.37084595	     37.51919451	      0.00000000	      5.00015107	     76.32787643	     -6.09312897	     19.41643162	     29.05695801	     54.57998947	      0.00000000	      5.00015107
      3.77500000	    -52.54707368	     -5.47622352	      0.20772070	     -0.37325844	      1.12567570	      0.03697943	     98.23883817	     -8.29992312	     -6.37021646	     98.03745829	      1.71107644	      6.29308521	     -1.91853804	      0.00000000	    103.31861230	     -5.36696709	      1.52893225	     64.95453093	      1.13367043	     13.43667457	      6.04619803	      0.00000000	     -0.07665530	      0.48886135	      0.49104458	     -0.14235655	      0.65018559	      0.52173487	     -0.12593699	      1.18861749	      0.52173487	     -0.08760934	      1.18861749	      0.42966401	     -0.07118211	      0.99688606	      0.39897372	     -0.04380084	      0.75724623	      0.36828344	     -0.54754113	      5.53009736	      2.73104265	      0.00000000	      0.00000000	     -0.00000000	      0.00000000	      0.00000000	     76.56774485	    -16.60104851	     23.66782559	     30.48470216	     37.53555143	      0.00000000	      5.00014943	     76.22230003	     -6.00743129	     19.31404371	     28.98805901	     54.54315487	      0.00000000	      5.00014943
      3.78300000	    -52.43270755	     -5.19254946	      0.35009171	     -0.37277846	      1.12513220	      0.03704436	     99.46075383	     -8.47527959	     -5.55912278	    100.23363539	      1.74940696	      6.83449586	     -1.40034129	      0.00000000	    101.70832189	     -5.46758490	      0.80788289	     62.82289317	      1.09646633	     12.99823009	      7.24392761	      0.00000000	     -0.07558287	      0.45490308	      0.46721838	     -0.14036494	      0.60502110	      0.49641953	     -0.12417509	      1.10605135	      0.49641953	     -0.08638366	      1.10605135	      0.40881608	     -0.07018625	      0.92763836	      0.37961493	     -0.04318805	      0.70464487	      0.35041378	     -0.53988085	      5.14595463	      2.59852845	      0.00000000	      0.00000000	     -0.00000000	      0.00000000	      0.00000000	     76.31152514	    -16.65869606	     23.84882050	     30.79080780	     37.56633330	      0.00000000	      5.00014523	     76.29292190	     -5.81514466	     18.79228844	     28.50891593	     54.44961023	      0.00000000	      5.00014523
      3.79200000	    -52.34695642	     -5.41719440	     -0.08264373	     -0.37229268	      1.12477070	      0.03739843	    100.49158709	     -8.12152421	     -5.45777590	    102.05211222	      1.78114537	      7.36179347	     -1.25103302	      0.00000000	    100.26756458	     -5.97112070	      0.74279603	     60.85361916	      1.06209602	     12.33233461	      7.71186134	      0.00000000	     -0.07513128	      0.49422310	      0.55028480	     -0.13952630	      0.65731672	      0.58467760	     -0.12343318	      1.20165404	      0.58467760	     -0.08586754	      1.20165404	      0.48149920	     -0.06976690	      1.00781974	      0.44710640	     -0.04293001	      0.76555158	      0.41271360	     -0.53665520	      5.59075051	      3.06051898	      0.00000000	      0.00000000	     -0.00000000	      0.00000000	      0.00000000	     76.28461235	    -16.72886541	     23.90398747	     30.86974265	     37.58418020	      0.00000000	      5.00014357	     76.19990243	     -5.72740235	     18.64157750	     28.43559937	     54.41173554	      0.00000000	      5.00014357
      3.80000000	    -52.24337337	     -5.17801334	     -0.15640289	     -0.37175031	      1.12427686	      0.03748191	    101.67300346	     -8.08312550	     -4.64045444	    103.98529650	      1.81488580	      8.81398630	      0.42975709	      0.00000000	     98.66360114	     -6.27834210	      0.10529616	     58.87616816	      1.02758299	     12.27554063	      9.70512333	      0.00000000	     -0.07600037	      0.47073788	      0.56142316	     -0.14114029	      0.62608138	      0.59651211	     -0.12486101	      1.14455209	      0.59651211	     -0.08686083	      1.14455209	      0.49124526	     -0.07057395	      0.95992869	      0.45615632	     -0.04342661	      0.72917298	      0.42106737	     -0.54286306	      5.32508108	      3.12246718	      0.00000000	      0.00000000	     -0.00000000	      0.00000000	      0.00000000	     76.15789686	    -16.78699396	     24.19574789	     31.06941460	     37.59244984	      0.00000000	      5.00013426	     76.11296759	     -5.50803266	     17.61624810	     28.17671569	     54.27169992	      0.00000000	      5.00013426
      3.80800000	    -52.18544092	     -5.39789542	     -0.54977860	     -0.37131918	      1.12407989	      0.03763999	    102.74804502	     -7.78707640	     -4.61021642	    105.58444834	      1.84279626	      9.40863842	      0.40948298	      0.00000000	     97.23045553	     -6.73123135	     -0.01662541	     57.01093106	      0.99502846	     11.57403666	      9.89989408	      0.00000000	     -0.07655914	      0.51292350	      0.63862687	     -0.14217798	      0.68218825	      0.67854105	     -0.12577901	      1.24712219	      0.67854105	     -0.08749944	      1.24712219	      0.55879851	     -0.07109282	      1.04595359	      0.51888433	     -0.04374589	      0.79451850	      0.47897015	     -0.54685430	      5.80229317	      3.55185106	      0.00000000	      0.00000000	     -0.00000000	      0.00000000	      0.00000000	     76.21059460	    -16.82566158	     24.27006771	     31.12012375	     37.61788854	      0.00000000	      5.00013280	     75.97736739	     -5.43035612	     17.52220680	     28.14428804	     54.23882022	      0.00000000	      5.00013280
      3.81700000	    -52.12430180	     -5.03842480	     -0.47100744	     -0.37090291	      1.12374865	      0.03766011	    104.01592023	     -7.84157090	     -3.78321421	    107.30718355	      1.87286366	     10.73960014	      1.26652751	      0.00000000	     95.60928014	     -6.86056490	     -0.92872554	     55.06541694	      0.96107283	     11.21859801	     11.09501976	      0.00000000	     -0.07600778	      0.47192101	      0.61761237	     -0.14115405	      0.62765495	      0.65621314	     -0.12487318	      1.14742875	      0.65621314	     -0.08686929	      1.14742875	      0.54041082	     -0.07058083	      0.96234133	      0.50181005	     -0.04343085	      0.73100565	      0.46320927	     -0.54291598	      5.33846489	      3.43497470	      0.00000000	      0.00000000	     -0.00000000	      0.00000000	      0.00000000	     76.12877195	    -16.81541435	     24.72548087	     31.19907803	     37.68363842	      0.00000000	      5.00012803	     75.96326224	     -5.33221516	     16.91526825	     27.95047583	     54.14165124	      0.00000000	      5.00012803
      3.82500000	    -52.08505735	     -4.96897275	     -0.63550075	     -0.37048693	      1.12361111	      0.03775336	    105.17262095	     -7.68362864	     -3.38188654	    108.75880534	      1.89819924	     11.91745234	      1.76289307	      0.00000000	     94.10118651	     -7.12357199	     -1.39979349	     53.26021662	      0.92956614	     10.78179746	     11.55151162	      0.00000000	     -0.07596177	      0.47253593	      0.64437420	     -0.14106861	      0.62847279	      0.68464758	     -0.12479760	      1.14892387	      0.68464758	     -0.08681671	      1.14892387	      0.56382742	     -0.07053810	      0.96359528	      0.52355404	     -0.04340456	      0.73195816	      0.48328065	     -0.54258734	      5.34542099	      3.58381597	      0.00000000	      0.00000000	     -0.00000000	      0.00000000	      0.00000000	     76.16894852	    -16.80044302	     25.02481470	     31.16806841	     37.75416540	      0.00000000	      5.00012347	     75.85000216	     -5.26247764	     16.50292580	     27.92329593	     54.04052416	      0.00000000	      5.00012347
